<?xml version="1.0" encoding="UTF-8"?><svg id="Layer_2" xmlns="http://www.w3.org/2000/svg" viewBox="0 0 853.4 227.25"><defs><style>.cls-1{fill:#100030;}</style></defs><path class="cls-1" d="m781.35,159.6l49.2-76.49c.77-1.19-.07-2.75-1.48-2.76l-20.93-.22c-.6,0-1.16.29-1.5.78l-32.01,47c-.45.65-1.26.94-2.02.7-3.17-1-12.2-3.08-24.42.71-15.34,4.76-31.48,25.66-35.97,29.62-4.5,3.97-5.82,3.97-12.44,6.88-5.96,2.62-3.97-2.48-3.52-3.52.05-.12.11-.22.18-.32,1.1-1.55,11.2-15.8,14.45-21.55,3.44-6.09,1.06-12.17-1.05-14.29-2.12-2.11-11.64-2.91-23.02,3.97-4.08,2.47-6.77,3.61-8.53,4.06-1.6.4-2.85-1.39-1.92-2.75l1.12-1.64c.81-1.2-.05-2.82-1.5-2.8l-20.46.21c-.61,0-1.17.32-1.49.83-1.7,2.71-7.28,11.5-11.92,17.7-5.56,7.41-11.64,15.34-19.31,17.99-5.12,1.76-6.71.34-7.2-.8-.22-.53-.16-1.14.15-1.63l19.83-31.68c.7-1.12-.01-2.59-1.33-2.73-6-.64-19.59-1.75-21.24,1.13-2.12,3.7-3.7,1.58-3.7,1.58,0,0-4.5-6.61-24.87-1.85s-29.89,24.34-34.12,28.3c-4.24,3.97-7.2,4.94-14.69,8.15-6.91,2.96-4.43-2.87-3.99-3.8.04-.08.08-.15.12-.23l48.82-75.62c.77-1.2-.1-2.78-1.53-2.76l-21.74.3c-.61,0-1.17.32-1.49.84-3.73,6.05-26.67,43.07-31.26,47-3.91,3.35-15.68,6.05-20.62,7.06-1.01.21-2.01-.47-2.13-1.5-.4-3.47-3.98-10.47-26.15-11.27-29.63-1.07-47.27,29.43-50.87,32-3.6,2.57-5.4,3.35-11.06,6.18-5.65,2.82-11.57,3.85-9-.26,2.57-4.12,11.58-19.29,11.32-23.92s-2.06-12.34-10.29-13.89c-4.65-.87-10.29.64-14.31,2.12-1.6.58-3.03-1.21-2.12-2.65l24.71-38.89c.76-1.19-.1-2.75-1.51-2.75h-19.91c-.62,0-1.2.32-1.52.84-4.03,6.51-30.23,48.84-38.06,61.65-8.49,13.89-14.92,16.46-22.37,19.55-7.46,3.08-5.66-1.55-5.66-1.55,0,0,14.91-22.63,16.46-27.52,1.54-4.88-1.55-10.03-9-11.05-7.46-1.03-28.55,10.54-29.58,11.05-1.03.52-2.06-8.74-4.11-10.03-2.06-1.28-9.01-2.05-14.66,1.03-3.04,1.66-7.26,4.06-10.52,5.92-1.52.87-3.25-.72-2.51-2.31.11-.25.17-.5.17-.75,0-.95-.77-1.81-1.82-1.8l-20.82.22c-.63.01-1.21.34-1.53.89-1.97,3.4-9.22,15.79-13.64,21.75-5.14,6.94-12.86,11.32-19.8,15.17-6.14,3.41-4.84-2.22-4.45-3.57.05-.18.12-.34.22-.49l20.71-31.79c.78-1.18-.06-2.75-1.47-2.77-6.65-.08-21.21-.18-21.54.48-.19.38-.81,1.32-1.45,2.24-.65.95-1.98,1.02-2.79.21-1.32-1.31-4.17-2.75-10.3-2.83-9.82-.12-17.18,2.58-29.81,11.45-10.45,7.34-14.94,16.16-21.19,20.62-6.25,4.47-19.75,10.12-26.29,10.12-4.99,0-8.77-4.83-10.28-7.14-.45-.68-.38-1.56.17-2.17,1.72-1.93,5.64-6.51,9.21-12.11,4.76-7.44,33.48-54.89,48.07-73.82,14.59-18.93,21.29-20.9,31.15-26.42,9.86-5.53,26.03-3.55,29.19,1.57,3.15,5.13,5.91,9.86-3.16,18.93-7.18,7.18-22.26,9.92-31.95,9.18-1.79-.14-2.65,2.13-1.22,3.21,4.09,3.09,10.41,6.81,18.17,7.9,13.93,1.95,26.47-1.96,38.46-11.43,11.98-9.48,6.69-26.47,4.18-30.38-2.51-3.9-20.11-20.47-50.55-16.38-30.43,4.09-46.79,22.72-56.78,34.98-9.22,11.31-46.32,71.99-52.05,81.39-.42.7-1.26,1.02-2.05.77-3.93-1.22-16.56-4.36-36.24-1.58-24.01,3.38-29.09,16.91-31.12,18.6-2.03,1.69-8.79,24.36,27.4,24.02,26.49-.25,37.58-8.83,41.62-13.42.88-.99,2.46-.72,3,.49,1.85,4.2,7.16,10.88,22.11,10.56,13.49-.29,21.06-4.58,24.87-7.79,1.1-.93,2.78-.26,2.93,1.18.44,3.99,2.98,9.05,13.07,8.87,16.59-.31,22.02-13.58,22.62-10.56.61,3.01,2.42,10.86,15.09,9.95,7.38-.53,15.17-4.12,20.39-7.03,1.59-.89,3.34.91,2.4,2.48l-1.22,2.06c-.72,1.21.17,2.74,1.58,2.71l19.93-.5c.6-.01,1.16-.32,1.48-.83,3.18-5.1,20.55-32.57,27.84-36.6,5.46-3.01,8.45.6,7.85,2.41-.49,1.49-16.27,24.57-21.88,32.75-.83,1.2.05,2.82,1.5,2.81l19.01-.25c.66,0,1.25-.36,1.56-.95,1.97-3.73,9.41-17.63,13.99-23.5,3.31-4.24,6.09-8.2,12.79-12.52,4.67-3.01,9.35-1.3,8.43.6-4.11,8.58-14.58,20.07-15.79,26.1-1.21,6.04,2.11,11.17,15.08,10.87,12.98-.31,27.16-12.98,30.17-12.98s1.96,9.66,8.6,12.08c6.64,2.41,25.31,1.87,40.1-1.15,11.98-2.45,28.66-11.02,34.55-14.18,1.05-.56,2.32.04,2.59,1.2.39,1.7,1.11,4.02,2.38,5.88,1.67,2.45,8.33,14.58,36.99,6.13,28.66-8.45,34.09-27.15,36.8-31.98,2.72-4.83,2.65-2.27,10.47-6.18,7.83-3.92,9.44-2.08,8.52,0-.92,2.07-21.64,23.7-18.18,31.3,3.45,7.59,6.21,10.81,20.48,5.98,14.27-4.83,23.7-13.81,24.39-11.28.7,2.53,3.46,14.73,17.61,13.81,14.15-.92,20.71-11.97,20.71-9.9s3.92,10.82,11.05,10.82,8.75-.92,20.02-6.67c2.67-1.36,4.68-2.31,6.2-2.97,1.62-.7,3.17,1.11,2.22,2.61l-1.89,2.98c-.74,1.18.08,2.72,1.47,2.75,6.2.13,19.38.28,20.08-.77.92-1.38,20.48-29.69,28.08-34.06,7.59-4.37,9.9-3.22,9.21-.46-.7,2.76-16.35,19.56-17.27,25.54-.92,5.99,1.39,11.51,16.8,11.05,11.62-.35,22.45-8.27,27.09-12.16,1-.84,2.53-.36,2.88.9,1.12,4.03,4.69,10.71,16.06,11.03,9.86.28,16.12-4.28,19.54-7.95,1.07-1.15,2.99-.41,3.08,1.16.05,1.03.19,1.98.45,2.61,2.17,5.2,9.48,6.17,16.66,4.76,13.62-2.67,35.73-16.87,43.1-21.8,1.44-.96,1.95-2.82,1.22-4.38l-2.08-4.43c-.92-1.97-3.35-2.69-5.19-1.53-5.04,3.16-14.18,8.72-17.74,9.65-4.54,1.2-2.59-4.31-2.18-5.37.04-.12.1-.22.16-.32Zm-725.66,10.02c-11.4,2.34-21.02,2.4-21.49.14-.46-2.26,8.41-5.98,19.81-8.32,11.41-2.34,21.03-2.4,21.49-.14s-8.4,5.98-19.81,8.32Zm129.96-12.94c-8.5,9.87-16.98,16.51-18.93,14.83-1.95-1.68,3.36-11.04,11.87-20.91,8.5-9.87,16.97-16.51,18.92-14.83,1.96,1.68-3.36,11.05-11.86,20.91Zm192.44,4.03c-8.14,10.17-16.5,17-18.69,15.25-2.18-1.74,2.65-11.4,10.8-21.57,8.14-10.17,16.51-17,18.69-15.25,2.18,1.74-2.65,11.4-10.8,21.57Zm89.11.73c-8.63,9.75-18.08,15.5-21.09,12.82-3.02-2.67,1.53-12.74,10.16-22.5,8.64-9.75,18.08-15.49,21.1-12.82,3.02,2.67-1.53,12.74-10.17,22.5Zm124.71-5.62c-8.51,9.87-16.98,16.51-18.93,14.83-1.95-1.69,3.36-11.05,11.86-20.92s16.98-16.5,18.93-14.82-3.36,11.04-11.86,20.91Zm164.07.51c-8.5,9.87-16.97,16.51-18.92,14.83s3.36-11.05,11.86-20.92,16.98-16.5,18.93-14.82-3.36,11.04-11.87,20.91Z"/></svg>